<?xml version="1.0" encoding="utf-8"?>
<!-- Generator: Adobe Illustrator 15.1.0, SVG Export Plug-In . SVG Version: 6.00 Build 0)  -->
<!DOCTYPE svg PUBLIC "-//W3C//DTD SVG 1.1//EN" "http://www.w3.org/Graphics/SVG/1.1/DTD/svg11.dtd">
<svg version="1.1" id="Layer_1" xmlns="http://www.w3.org/2000/svg" xmlns:xlink="http://www.w3.org/1999/xlink" x="0px" y="0px"
	 width="112.008px" height="112.008px" viewBox="0 0 112.008 112.008" enable-background="new 0 0 112.008 112.008"
	 xml:space="preserve">
<rect fill="#D1232A" width="112.008" height="112.008"/>
<g>
	<g>
		<defs>
			<rect id="SVGID_1_" y="0.001" width="112.006" height="112.007"/>
		</defs>
		<clipPath id="SVGID_2_">
			<use xlink:href="#SVGID_1_"  overflow="visible"/>
		</clipPath>
		<path clip-path="url(#SVGID_2_)" fill="#FFFFFF" d="M94.436,102.361v-5.939h-5.731v-3.778h5.139v-5.587h-5.139v-3.603h5.731
			v-5.811H82.029v24.718L94.436,102.361L94.436,102.361z M78.14,77.643h-8.244l-1.698,8.949c-0.246,1.239-0.438,2.643-0.575,4.211
			c-0.075-0.939-0.158-1.811-0.249-2.609c-0.09-0.8-0.195-1.542-0.312-2.227l-1.392-8.324h-8.309l-2.883,24.718h7.109l0.592-11.207
			l0.16-4.563c0.075,0.726,0.123,1.206,0.145,1.441c0.181,1.56,0.324,2.658,0.432,3.298l1.792,11.031h5.444l2.097-11.013
			c0.138-0.738,0.255-1.498,0.353-2.283c0.096-0.784,0.179-1.608,0.255-2.473l0.21,4.5l0.495,11.269h6.98L78.14,77.643z
			 M42.4,93.924l0.673-3.874l0.464-2.995c0.01-0.054,0.031-0.208,0.064-0.465c0.031-0.255,0.085-0.714,0.161-1.376
			c0.042-0.332,0.082-0.635,0.119-0.913c0.038-0.277,0.066-0.527,0.089-0.753l0.208,2.338c0.053,0.481,0.096,0.877,0.128,1.192
			c0.032,0.315,0.059,0.564,0.08,0.745c0.203,1.622,0.315,2.551,0.337,2.786c0.032,0.279,0.053,0.422,0.063,0.432l0.432,2.883
			L42.4,93.924L42.4,93.924z M48.164,77.643h-8.165l-5.939,24.718h6.899l0.545-3.138h4.499l0.496,3.138h6.9L48.164,77.643z
			 M25.528,93.268h2.466c0,0.544-0.056,1.038-0.169,1.48c-0.111,0.443-0.267,0.818-0.464,1.128c-0.198,0.311-0.44,0.55-0.729,0.721
			s-0.608,0.255-0.96,0.255c-0.886,0-1.532-0.485-1.938-1.457c-0.406-0.97-0.608-2.529-0.608-4.674c0-5.049,0.919-7.573,2.753-7.573
			c0.523,0,0.959,0.227,1.306,0.681c0.347,0.454,0.568,1.069,0.665,1.85l6.468-2.37c-1.76-4.077-4.595-6.115-8.501-6.115
			c-2.946,0-5.267,1.153-6.964,3.457c-1.696,2.306-2.545,5.459-2.545,9.462c0,3.949,0.843,7.054,2.53,9.318
			c1.697,2.241,4.033,3.361,7.011,3.361c3.032,0,5.321-1.142,6.869-3.427c1.419-2.091,2.129-5.517,2.129-10.279v-1.023h-9.318
			V93.268z"/>
	</g>
	<g>
		<defs>
			<rect id="SVGID_3_" y="0.001" width="112.006" height="112.007"/>
		</defs>
		<clipPath id="SVGID_4_">
			<use xlink:href="#SVGID_3_"  overflow="visible"/>
		</clipPath>
		<path clip-path="url(#SVGID_4_)" fill="#FFFFFF" d="M93.682,53.553h0.24c1.933,0,2.899,0.924,2.899,2.771
			c0,0.908-0.258,1.655-0.769,2.241c-0.513,0.588-1.152,0.881-1.922,0.881h-0.448L93.682,53.553L93.682,53.553z M99.622,62.439
			c2.551-1.143,3.827-3.208,3.827-6.195c0-2.797-0.951-4.953-2.85-6.467c-1.494-1.186-3.747-1.778-6.757-1.778h-6.835v24.718h6.645
			v-8.645l-0.049-1.633c0.118,0.342,0.217,0.634,0.297,0.881c0.079,0.245,0.136,0.442,0.167,0.592l3.297,8.805h7.221L99.622,62.439z
			 M85.207,72.716v-5.939h-5.733v-3.779h5.14v-5.586h-5.14v-3.603h5.733v-5.81H72.798v24.718L85.207,72.716L85.207,72.716z
			 M71.501,47.999h-6.516l-1.215,7.668c-0.171,1.068-0.326,2.258-0.464,3.57c-0.139,1.313-0.267,2.817-0.384,4.514
			c-0.396-3.778-0.86-7.049-1.393-9.813l-1.121-5.939h-5.747l-1.248,7.06c-0.353,2.038-0.642,4.189-0.865,6.452l-0.208,1.937
			l-0.225-2.257c-0.16-1.549-0.447-3.678-0.864-6.389l-1.089-6.803h-6.596l5.507,24.718h6.5l1.265-8.965
			c0.106-0.747,0.197-1.458,0.272-2.129c0.074-0.673,0.138-1.313,0.192-1.921c0.108-1.196,0.187-2.012,0.241-2.451
			c0.021,0.214,0.059,0.523,0.111,0.929c0.054,0.406,0.118,0.913,0.193,1.522c0.149,1.227,0.373,2.678,0.671,4.353l1.538,8.662
			h6.437L71.501,47.999z M36.218,65.208c-0.427,1.132-1.035,1.697-1.825,1.697c-0.769,0-1.369-0.573-1.801-1.72
			c-0.433-1.148-0.648-2.763-0.648-4.844c0-2.113,0.229-3.714,0.689-4.802c0.468-1.173,1.098-1.761,1.888-1.761
			c1.579,0,2.369,2.235,2.369,6.708C36.89,62.503,36.667,64.078,36.218,65.208 M41.293,51.04c-1.687-2.326-3.954-3.489-6.804-3.489
			c-2.327,0-4.339,0.859-6.036,2.577c-2.284,2.317-3.426,5.663-3.426,10.038c0,4.569,1.094,7.994,3.282,10.278
			c1.739,1.804,3.826,2.706,6.26,2.706c2.742,0,4.967-1.173,6.675-3.523c1.718-2.357,2.578-5.421,2.578-9.189
			C43.823,56.499,42.979,53.367,41.293,51.04 M14.099,53.393h0.464c0.727,0,1.323,0.272,1.793,0.817
			c0.47,0.534,0.705,1.228,0.705,2.081c0,0.865-0.24,1.545-0.721,2.042c-0.48,0.497-1.125,0.744-1.938,0.744l-0.304-0.016
			L14.099,53.393L14.099,53.393z M14.099,64.616h1.041c2.498,0,4.413-0.497,5.747-1.489c1.953-1.472,2.93-3.709,2.93-6.708
			c0-2.753-0.918-4.904-2.754-6.452c-1.559-1.312-3.949-1.968-7.172-1.968H7.423v24.718h6.675V64.616z"/>
	</g>
</g>
<path fill="#FFFFFF" d="M71.57,44.191v-1.632h-1.575v-1.037h1.413v-1.536h-1.413v-0.99h1.575v-1.596h-3.41v6.792H71.57z
	 M58.989,37.399h-1.833V39.8H56.28v-2.401h-1.834v6.792h1.834v-2.732h0.875v2.732h1.833V37.399z M44.7,39.026h1.051v-1.627h-3.898
	v1.627h1.013v5.165H44.7V39.026z"/>
</svg>
